<svg width="1600" height="1000" viewBox="0 0 1600 1000" fill="none" xmlns="http://www.w3.org/2000/svg">
<path fill-rule="evenodd" clip-rule="evenodd" d="M1600 0H0V1000H1600V0ZM1108.33 510.912C898.274 719.353 842.395 849.011 856.606 863.112C870.816 877.214 1001.48 821.761 1211.53 613.321C1421.59 404.88 1477.47 275.225 1463.26 261.124C1449.05 247.022 1318.39 302.472 1108.33 510.912ZM1234.19 635.808C1393.87 477.36 1511.23 413.28 1528.97 422.959C1539.13 440.955 1474.56 557.417 1314.88 715.87C1155.95 873.568 1038.95 937.787 1019.96 928.455C1010.56 909.611 1075.28 793.502 1234.19 635.808ZM1217.16 915.007C1213.36 905.99 1233.08 842.011 1337.55 738.348C1443.18 633.521 1507.93 614.688 1515.44 618.602C1519.8 626.472 1500.81 690.719 1395.18 795.541C1290.72 899.198 1226.24 918.771 1217.16 915.007ZM959.805 363.529C800.129 521.978 682.764 586.054 665.029 576.378C654.874 558.379 719.447 441.916 879.123 283.468C1038.04 125.775 1155.05 61.5523 1174.04 70.8827C1183.44 89.7273 1118.72 205.836 959.805 363.529ZM976.845 84.3337C980.638 93.3506 960.914 157.332 856.456 260.986C750.823 365.808 686.077 384.647 678.567 380.735C674.201 372.868 693.184 308.624 798.823 203.797C903.288 100.137 967.761 80.5676 976.845 84.3337ZM1085.67 488.424C875.613 696.865 744.952 752.318 730.742 738.217C716.531 724.115 772.411 594.457 982.466 386.017C1192.52 177.576 1323.19 122.127 1337.4 136.228C1351.61 150.329 1295.72 279.983 1085.67 488.424Z" fill="black"/>
</svg>
