<svg width="12" height="24" viewBox="0 0 12 24" fill="none" xmlns="http://www.w3.org/2000/svg">
<g clip-path="url(#clip0_1532_2661)">
<path d="M8.37958 10.8116H1.18964V3.62902H5.84795L7.05048 2.42773H0.594831C0.265517 2.42773 0 2.69348 0 3.02195V11.4058C0 11.7348 0.266023 12 0.594831 12H8.9873C9.31661 12 9.58213 11.7343 9.58213 11.4058V4.95678L8.37961 6.15807L8.37958 10.8116Z" fill="black"/>
<path d="M11.4177 0H8.0381C7.70878 0 7.44326 0.265749 7.44326 0.594219C7.44326 0.923194 7.70929 1.18844 8.0381 1.18844H9.96201L4.36724 6.79034C4.12694 7.0304 4.12694 7.39741 4.36724 7.63746C4.48096 7.75107 4.63326 7.81429 4.78506 7.81429C4.93685 7.81429 5.08865 7.75107 5.20288 7.63746L10.81 2.04846V3.97039C10.81 4.29936 11.0761 4.5646 11.4049 4.5646C11.7342 4.5646 11.9997 4.29885 11.9997 3.97039V0.594269C12.0126 0.265787 11.7465 5.05888e-05 11.4177 5.05888e-05L11.4177 0Z" fill="black"/>
<path d="M8.37958 22.8116H1.18964V15.629H5.84795L7.05048 14.4277H0.594831C0.265517 14.4277 0 14.6935 0 15.022V23.4058C0 23.7348 0.266023 24 0.594831 24H8.9873C9.31661 24 9.58213 23.7343 9.58213 23.4058V16.9568L8.37961 18.1581L8.37958 22.8116Z" fill="white"/>
<path d="M11.4177 12H8.0381C7.70878 12 7.44326 12.2657 7.44326 12.5942C7.44326 12.9232 7.70929 13.1884 8.0381 13.1884H9.96201L4.36724 18.7903C4.12694 19.0304 4.12694 19.3974 4.36724 19.6375C4.48096 19.7511 4.63326 19.8143 4.78506 19.8143C4.93685 19.8143 5.08865 19.7511 5.20288 19.6375L10.81 14.0485V15.9704C10.81 16.2994 11.0761 16.5646 11.4049 16.5646C11.7342 16.5646 11.9997 16.2989 11.9997 15.9704V12.5943C12.0126 12.2658 11.7465 12.0001 11.4177 12.0001L11.4177 12Z" fill="white"/>
</g>
<defs>
<clipPath id="clip0_1532_2661">
<rect width="12.0002" height="24" fill="white"/>
</clipPath>
</defs>
</svg>
